<?xml version="1.0" encoding="utf-8"?>
<svg width="526px" height="656px" viewBox="0 0 526 656" version="1.1" xmlns:xlink="http://www.w3.org/1999/xlink" xmlns="http://www.w3.org/2000/svg">
  <defs>
    <path d="M0 0L526 0L526 656L0 656L0 0Z" id="path_1" />
    <clipPath id="mask_1">
      <use xlink:href="#path_1" />
    </clipPath>
  </defs>
  <g id="ps-studios-logo">
    <path d="M0 0L526 0L526 656L0 656L0 0Z" id="Background" fill="none" fill-rule="evenodd" stroke="none" />
    <g clip-path="url(#mask_1)">
      <g id="Group" transform="translate(451 576)">
        <path d="M0 0C12.4054 0.00817871 24.8108 0.00128174 37.2162 0.003479C39.464 0.000854492 41.7118 0.00817871 43.9597 0C43.9579 9.99927 43.9785 19.9985 43.9781 29.9977C43.9882 33.9982 43.9948 37.999 44 41.9993C29.3345 42 14.669 42 0.00350952 41.9993C0.00393677 32.2859 0.00350952 22.5724 0.00350952 12.859C0.00131226 8.57281 0.0083313 4.28619 0 0" id="Shape" fill="#000000" stroke="none" />
        <path d="M0 0C12.4054 0.00817871 24.8108 0.00128174 37.2162 0.003479C39.464 0.000854492 41.7118 0.00817871 43.9597 0C43.9579 9.99927 43.9785 19.9986 43.9781 29.9979C43.9882 33.9983 43.9948 37.9991 44 41.9995C29.3345 42.0002 14.669 42.0002 0.00350952 41.9995C0.00393677 32.286 0.00350952 22.5726 0.00350952 12.8591C0.00131226 8.57288 0.0083313 4.28619 0 0M17.834 8.40533C17.8323 16.2416 17.8362 24.0784 17.8323 31.9147C19.6241 32.4786 21.4221 33.0243 23.2109 33.5977C23.2087 27.2737 23.2105 20.9497 23.2101 14.6262C23.2136 14.2177 23.1921 13.805 23.2644 13.4009C23.3298 13.0823 23.4666 12.7269 23.7818 12.575C24.0045 12.4636 24.2654 12.5223 24.4828 12.6165C24.7639 12.7343 25.0155 12.9454 25.1304 13.2295C25.4434 13.8814 25.365 14.6205 25.375 15.3199C25.375 17.6797 25.3741 20.04 25.3755 22.3998C25.3807 22.4974 25.5188 22.4979 25.5877 22.5423C26.1861 22.8018 26.8232 22.9857 27.4756 23.0453C28.2073 23.0803 28.9772 22.9594 29.5905 22.5423C30.2293 22.1339 30.6783 21.4907 30.9532 20.8003C31.3052 19.8803 31.4061 18.8847 31.385 17.9073C31.3474 16.8327 31.243 15.7435 30.8528 14.7306C30.5182 13.8235 29.9303 13.0093 29.1723 12.3984C28.6804 11.9671 28.1003 11.652 27.5273 11.3389C26.1844 10.6874 24.7542 10.2376 23.3241 9.81281C21.5146 9.27008 19.6855 8.7887 17.834 8.40533M10.3882 24.8555C9.57443 25.147 8.74976 25.4094 7.95007 25.7367C7.40247 25.969 6.85443 26.2116 6.36075 26.5444C6.06876 26.7236 5.77283 26.9252 5.59702 27.2253C5.4808 27.4468 5.38568 27.6963 5.43829 27.9489C5.52161 28.501 5.95782 28.9203 6.41687 29.2065C6.80618 29.4353 7.21964 29.6283 7.655 29.757C8.28238 29.9655 8.92514 30.127 9.56525 30.2927C10.5872 30.4978 11.6219 30.6562 12.6649 30.6981C13.555 30.718 14.4485 30.7171 15.3337 30.6113C15.8177 30.5872 16.2903 30.4736 16.7704 30.4162C16.7586 29.4944 16.7678 28.5723 16.7656 27.6506C15.9356 27.9592 15.0969 28.2442 14.2639 28.5447C13.5567 28.8011 12.8026 28.9324 12.0485 28.9185C11.5592 28.916 11.0454 28.8853 10.6043 28.6565C10.4706 28.5831 10.3215 28.4458 10.3619 28.28C10.3868 28.1216 10.5267 28.0206 10.6482 27.9303C10.8818 27.7853 11.1392 27.679 11.4001 27.5914C13.1871 26.9606 14.9742 26.3295 16.7621 25.7009C16.7744 24.6746 16.752 23.6471 16.7735 22.6209C14.6471 23.3708 12.5163 24.1104 10.3882 24.8555M29.7672 23.9696C27.8934 24.0599 26.0287 24.4005 24.2535 25.0015C24.261 26.0626 24.2575 27.1243 24.2553 28.1859C25.9362 27.5996 27.6189 27.0181 29.3008 26.4335C29.8549 26.244 30.4038 26.0229 30.9891 25.9426C31.6429 25.8394 32.3136 25.8269 32.9673 25.9374C33.2111 25.9772 33.4474 26.0682 33.6482 26.212C33.7609 26.2945 33.8214 26.4568 33.7491 26.5842C33.5772 26.8588 33.2655 26.9956 32.9682 27.1001C30.0658 28.1259 27.1586 29.1387 24.2566 30.1658C24.2562 31.1895 24.2597 32.2135 24.2553 33.2371C28.1722 31.8456 32.0935 30.4663 36.0096 29.0723C36.573 28.8668 37.1114 28.5947 37.6125 28.2688C37.8817 28.0663 38.1724 27.8707 38.3526 27.5815C38.5148 27.3375 38.627 27.0349 38.5587 26.7418C38.4775 26.3217 38.1746 25.9832 37.8344 25.7363C37.4525 25.4453 37.0018 25.2644 36.5603 25.0826C36.0819 24.9367 35.6194 24.7433 35.1349 24.6159C34.3686 24.3914 33.5833 24.2382 32.7924 24.1276C32.2799 24.0797 31.7691 23.9947 31.2535 23.9929C30.7585 23.9774 30.2614 23.9394 29.7672 23.9696L29.7672 23.9696ZM0.293488 46.7788C0.653534 46.2573 1.31314 46.038 1.92911 46.0049C2.51175 45.9791 3.10004 46.0558 3.66022 46.2131C3.58328 46.5325 3.51324 46.8535 3.45578 47.177C2.92239 46.9883 2.34189 46.9124 1.77911 46.9963C1.59064 47.0557 1.36847 47.135 1.2872 47.3297C1.19904 47.5179 1.22064 47.7571 1.36069 47.917C1.48129 48.0751 1.66284 48.1689 1.84006 48.2532C2.25977 48.472 2.72226 48.6065 3.12381 48.8596C3.30707 48.986 3.50851 49.0954 3.6507 49.2706C4.14478 49.8638 4.10544 50.7993 3.59149 51.3691C3.25952 51.7152 2.78708 51.8988 2.31509 51.9662C1.53705 52.0616 0.743011 51.9476 0 51.7156C0.0782471 51.3865 0.156036 51.0571 0.216553 50.725C0.784943 50.9485 1.40219 51.0847 2.01685 51.0316C2.25241 51.0121 2.51306 50.9404 2.65396 50.739C2.79227 50.5859 2.81476 50.3549 2.73953 50.1691C2.66995 49.9732 2.48627 49.8485 2.31897 49.7374C1.75922 49.4291 1.10654 49.2858 0.605988 48.8753C-0.0302429 48.3978 -0.167725 47.4166 0.293488 46.7788L0.293488 46.7788ZM6 46C7.66663 46.0059 9.33325 46.0004 10.9994 46.0026C11.0004 46.3304 10.9999 46.6583 10.9999 46.9863C10.4044 46.9901 9.80896 46.9935 9.21347 46.9968C9.21204 48.6642 9.21347 50.3322 9.21301 52C8.746 52 8.27948 52 7.81247 52C7.81198 50.3287 7.81296 48.6575 7.81247 46.9863C7.2088 46.9858 6.60513 46.9867 6.00143 46.9858C6.00049 46.6571 6.00339 46.3283 6 46L6 46ZM13 46C13.4309 46.0046 13.8618 46.0046 14.2927 46C14.2886 47.274 14.2927 48.5482 14.2904 49.8222C14.2878 50.0715 14.29 50.3373 14.4279 50.5596C14.5955 50.8575 14.9641 50.9918 15.3018 51.0218C15.7031 51.0472 16.1622 50.9905 16.4475 50.6946C16.6666 50.4922 16.7105 50.1846 16.7096 49.909C16.7082 48.6061 16.7118 47.3029 16.7078 46C17.1387 46.0046 17.5695 46.0046 18 46C17.9901 47.2182 17.9928 48.4364 17.9875 49.6546C17.9785 50.0309 18.03 50.4224 17.8728 50.7801C17.7384 51.1852 17.3989 51.5035 17.0021 51.6885C16.5515 51.9238 16.0279 51.9962 15.5195 52C15.0998 51.9954 14.6711 51.9644 14.2806 51.8099C13.8103 51.6563 13.3816 51.3418 13.1733 50.908C13.0533 50.6611 13.0054 50.3877 13.0036 50.1181C13.0009 48.7454 13.0072 47.3727 13 46L13 46ZM21.0046 46C21.6661 46.0055 22.3276 46.0013 22.9891 46.0021C23.4311 45.9928 23.873 46.0626 24.2908 46.2084C24.8818 46.4008 25.3901 46.8416 25.6631 47.4072C25.9059 47.8599 25.9886 48.3807 25.9986 48.8909C26.0178 49.6569 25.8417 50.4664 25.3363 51.0586C24.8438 51.6576 24.0709 51.9429 23.3184 51.9818C22.5459 52.0131 21.7725 51.9797 21 52C21.0117 50.0001 21.0033 47.9999 21.0046 46M22.2157 46.9858C22.2149 48.3283 22.2174 49.6713 22.2149 51.0142C22.6264 50.9935 23.045 51.0307 23.4503 50.9373C23.9077 50.8511 24.3254 50.5463 24.5396 50.1265C24.6731 49.8463 24.7641 49.5406 24.7724 49.2283C24.7983 48.7654 24.762 48.2797 24.5387 47.8654C24.3697 47.5666 24.1189 47.3011 23.7975 47.1747C23.2996 46.9591 22.7454 46.9921 22.2157 46.9858L22.2157 46.9858ZM28 46C28.3333 46.0051 28.6667 46.0034 29 46.0013C29.0003 48.0009 28.9879 50.0004 28.9962 52C28.6642 51.9873 28.332 51.9958 28 51.9954C28.0041 49.9971 28.0038 47.9987 28 46L28 46ZM34.4652 46.0369C35.3071 45.9241 36.2329 46.062 36.9083 46.5575C37.3934 46.9386 37.7376 47.4651 37.8747 48.0345C38.0898 48.8937 38.044 49.8285 37.6117 50.6281C37.3043 51.2304 36.6882 51.6815 35.9965 51.8786C35.093 52.0906 34.0604 52.0499 33.2721 51.5564C32.5445 51.1151 32.1495 50.3368 32.0394 49.567C31.927 48.7166 32.0394 47.7971 32.5818 47.0747C32.9941 46.4918 33.7138 46.1175 34.4652 46.0369M34.6359 46.9895C34.4186 47.0353 34.2073 47.1146 34.0385 47.2493C33.6723 47.4982 33.4993 47.906 33.399 48.2973C33.2819 48.8471 33.2782 49.4292 33.4778 49.9642C33.565 50.235 33.7292 50.4869 33.9554 50.6819C34.5646 51.216 35.6933 51.166 36.2059 50.5407C36.4932 50.2317 36.5967 49.8243 36.6527 49.4326C36.719 48.9985 36.6802 48.5542 36.5618 48.1307C36.4568 47.8479 36.329 47.5571 36.0795 47.3528C35.7208 46.9976 35.1401 46.8962 34.6359 46.9895L34.6359 46.9895ZM40.5702 46.481C40.9879 46.147 41.5378 46.0131 42.069 46.0004C42.6049 45.9944 43.1422 46.0635 43.6587 46.2059C43.5903 46.528 43.5128 46.8488 43.4574 47.1738C42.9998 47.02 42.5119 46.9416 42.0283 46.9615C41.7629 46.989 41.4499 47.0505 41.304 47.295C41.1339 47.576 41.2854 47.9574 41.5676 48.1061C41.93 48.3452 42.3499 48.4736 42.7439 48.652C43.05 48.7825 43.3284 48.9702 43.576 49.1885C43.8929 49.4932 44.0094 49.9441 43.9994 50.3675C43.9695 50.7751 43.8228 51.2002 43.4894 51.4655C43.1816 51.7465 42.7673 51.8727 42.3642 51.955C41.8508 52.033 41.3256 52.005 40.8174 51.9071C40.5364 51.8762 40.2745 51.7681 40 51.7117C40.0714 51.3829 40.1481 51.0553 40.2165 50.7256C40.7165 50.9404 41.265 51.0307 41.8088 51.0353C42.0473 51.0443 42.2941 51.001 42.5019 50.8824C42.7418 50.7425 42.8426 50.431 42.7452 50.178C42.6859 49.9988 42.5365 49.8695 42.3816 49.7682C41.9703 49.5229 41.4966 49.4046 41.0771 49.1749C40.7845 49.0096 40.4875 48.8253 40.2935 48.5477C39.8303 47.9277 39.9528 46.9606 40.5702 46.481L40.5702 46.481ZM45 51.0001C45.333 51.0001 45.6665 50.9997 46 51.0005C45.9995 51.0297 45.9995 51.0891 45.9995 51.1183C45.8644 51.1183 45.7298 51.1183 45.5952 51.1187C45.5936 51.4123 45.5956 51.7059 45.5941 52C45.5491 51.9984 45.4595 51.9952 45.4145 51.9941C45.4205 51.702 45.416 51.4103 45.417 51.1191C45.2778 51.1183 45.1387 51.1183 45 51.1187C45 51.0891 45 51.0297 45 51.0001L45 51.0001ZM46.0001 51.002C46.0653 51.0012 46.1318 51.0016 46.1987 51.0024C46.298 51.2828 46.4032 51.5608 46.5 51.8424C46.5989 51.5612 46.6974 51.28 46.8055 51.0024C46.8686 51.0012 46.9322 51.0004 46.9966 51C47.0033 51.3329 46.9978 51.6659 46.9995 51.9992C46.9625 51.9992 46.8892 51.9992 46.8526 51.9996C46.8484 51.7362 46.864 51.4724 46.8324 51.2105C46.7727 51.4807 46.6612 51.7374 46.5728 52C46.537 51.9996 46.4655 51.9992 46.4297 51.9988C46.3296 51.7441 46.2496 51.483 46.147 51.2295C46.1474 51.4858 46.1474 51.7425 46.147 51.9992C46.1104 51.9992 46.0371 51.9992 46.0005 51.9992C45.9997 51.6667 46.0001 51.3341 46.0001 51.002L46.0001 51.002Z" id="Shape" fill="#FFFFFF" fill-rule="evenodd" stroke="none" />
      </g>
      <g id="Group" transform="translate(448.3584 576.07715)">
        <path d="M1 0L47 0L47 42L1 42L1 0Z" id="Rectangle" fill="#EF474C" fill-rule="evenodd" stroke="none" />
        <g id="FH" fill="#FFFFFF" transform="translate(0 6)">
          <path d="M38.0625 17.2344L38.0625 27.5156L42.8438 27.5156L42.8438 4.48438L38.0625 4.48438L38.0625 13.2656L29.0625 13.2656L29.0625 4.48438L24.2969 4.48438L24.2969 27.5156L29.0625 27.5156L29.0625 17.2344L38.0625 17.2344ZM9.5625 8.5625L21.1094 8.5625L21.1094 4.51562L4.78125 4.51562L4.78125 27.5156L9.5625 27.5156L9.5625 17.8594L19.6719 17.8594L19.6719 13.8594L9.5625 13.8594L9.5625 8.5625Z" />
        </g>
      </g>
    </g>
  </g>
</svg>